<svg xmlns="http://www.w3.org/2000/svg" width="231.462" height="193.961" viewBox="0 0 231.462 193.961">
  <g id="Empty_Payments" data-name="Empty Payments" transform="translate(-49.83 -35.449)">
    <g id="Group_15763" data-name="Group 15763" transform="translate(58.83 0)">
      <g id="Group_15761" data-name="Group 15761" transform="translate(-9 182.06)">
        <circle id="Ellipse_1347" data-name="Ellipse 1347" cx="9.863" cy="9.863" r="9.863" transform="translate(0 0.001)" fill="#1c3737"/>
      </g>
      <g id="Group_15762" data-name="Group 15762" transform="translate(49.963)">
        <path id="Path_32568" data-name="Path 32568" d="M430.292,22.272l2.2-2.2a3.425,3.425,0,0,0-4.844-4.844l-2.2,2.2-2.2-2.2A3.425,3.425,0,1,0,418.4,20.07l2.2,2.2-2.2,2.2a3.426,3.426,0,0,0,4.845,4.844l2.2-2.2,2.2,2.2a3.426,3.426,0,1,0,4.845-4.844Z" transform="translate(-260.998 120.178)" fill="#029b97"/>
      </g>
    </g>
    <g id="Group_15764" data-name="Group 15764" transform="translate(145.375 35.449)">
      <circle id="Ellipse_1348" data-name="Ellipse 1348" cx="13.72" cy="13.72" r="13.72" fill="#029b97"/>
    </g>
    <g id="Rectangle_2821" data-name="Rectangle 2821" transform="matrix(0.788, -0.616, 0.616, 0.788, 111.952, 114.818)" fill="#fff" stroke="#ddefe8" stroke-width="1" stroke-dasharray="5">
      <rect width="121" height="77" rx="10" stroke="none"/>
      <rect x="0.5" y="0.5" width="120" height="76" rx="9.5" fill="none"/>
    </g>
    <g id="Group_15774" data-name="Group 15774">
      <rect id="Rectangle_2822" data-name="Rectangle 2822" width="159" height="101" rx="14" transform="translate(85.83 122.41)" fill="#ddefe9"/>
      <rect id="Rectangle_2786" data-name="Rectangle 2786" width="159" height="101" rx="10" transform="translate(78.83 128.41)" fill="#fff"/>
      <line id="Line_151" data-name="Line 151" x2="159.118" transform="translate(79.33 141.91)" fill="none" stroke="#ddefe8" stroke-width="1" stroke-dasharray="5"/>
      <line id="Line_152" data-name="Line 152" x2="159.118" transform="translate(79.33 217.91)" fill="none" stroke="#ddefe8" stroke-width="1" stroke-dasharray="5"/>
      <g id="Group_15773" data-name="Group 15773">
        <path id="Rectangle_2820" data-name="Rectangle 2820" d="M11.5,0H67a0,0,0,0,1,0,0V23a0,0,0,0,1,0,0H11.5A11.5,11.5,0,0,1,0,11.5v0A11.5,11.5,0,0,1,11.5,0Z" transform="translate(172.83 164.41)" fill="#ddefe9"/>
        <circle id="Ellipse_1387" data-name="Ellipse 1387" cx="5.5" cy="5.5" r="5.5" transform="translate(179.83 170.41)" fill="#fff"/>
      </g>
    </g>
    <g id="Group_15759" data-name="Group 15759" transform="matrix(0.788, -0.616, 0.616, 0.788, 158.329, 98.367)">
      <circle id="Ellipse_1346" data-name="Ellipse 1346" cx="16.926" cy="16.926" r="16.926" fill="#ddefe8"/>
      <path id="Path_32557" data-name="Path 32557" d="M260.1,260.741a16.936,16.936,0,0,1-20.246,16.6,16.93,16.93,0,0,0,0-33.2,16.936,16.936,0,0,1,20.246,16.6Z" transform="translate(-226.252 -243.815)" fill="#029b97" opacity="0.33"/>
      <g id="Group_15758" data-name="Group 15758" transform="translate(7.395 13.759)">
        <path id="Path_32558" data-name="Path 32558" d="M238.615,346.962a1.475,1.475,0,0,1-.96-.354,4.061,4.061,0,0,0-2.6-.9h-.014a4.058,4.058,0,0,0-2.591.881,1.48,1.48,0,0,1-1.908-2.262,6.959,6.959,0,0,1,4.5-1.578h.023a6.962,6.962,0,0,1,4.511,1.605,1.48,1.48,0,0,1-.962,2.605Z" transform="translate(-225.719 -337.277)" fill="#94c9d3"/>
        <g id="Group_15757" data-name="Group 15757">
          <g id="Group_15755" data-name="Group 15755" transform="translate(16.103)">
            <path id="Path_32559" data-name="Path 32559" d="M292.228,317.548h-.008a1.48,1.48,0,0,1-.01-2.96h.026a1.48,1.48,0,0,1-.008,2.96Z" transform="translate(-290.74 -314.588)" fill="#94c9d3"/>
          </g>
          <g id="Group_15756" data-name="Group 15756" transform="translate(0 0)">
            <path id="Path_32560" data-name="Path 32560" d="M209.4,317.548a1.48,1.48,0,0,1-.017-2.96h.017a1.48,1.48,0,0,1,0,2.96Z" transform="translate(-207.907 -314.589)" fill="#94c9d3"/>
            <path id="Path_32561" data-name="Path 32561" d="M292.218,317.548a1.48,1.48,0,0,1-.017-2.96h.017a1.48,1.48,0,0,1,0,2.96Z" transform="translate(-274.629 -314.589)" fill="#94c9d3"/>
          </g>
        </g>
      </g>
    </g>
  </g>
</svg>
