<svg xmlns="http://www.w3.org/2000/svg" width="202.462" height="188.056" viewBox="0 0 202.462 188.056">
  <g id="Empty_inventory" data-name="Empty inventory" transform="translate(-49.83 -35.449)">
    <g id="Group_15763" data-name="Group 15763" transform="translate(58.83 0)">
      <g id="Group_15761" data-name="Group 15761" transform="translate(-9 182.06)">
        <circle id="Ellipse_1347" data-name="Ellipse 1347" cx="9.863" cy="9.863" r="9.863" transform="translate(0 0.001)" fill="#1c3737"/>
      </g>
      <g id="Group_15762" data-name="Group 15762" transform="translate(20.963)">
        <path id="Path_32568" data-name="Path 32568" d="M430.292,22.272l2.2-2.2a3.425,3.425,0,0,0-4.844-4.844l-2.2,2.2-2.2-2.2A3.425,3.425,0,1,0,418.4,20.07l2.2,2.2-2.2,2.2a3.426,3.426,0,0,0,4.845,4.844l2.2-2.2,2.2,2.2a3.426,3.426,0,1,0,4.845-4.844Z" transform="translate(-260.998 120.178)" fill="#029b97"/>
      </g>
    </g>
    <g id="Group_15764" data-name="Group 15764" transform="translate(145.375 35.449)">
      <circle id="Ellipse_1348" data-name="Ellipse 1348" cx="13.72" cy="13.72" r="13.72" fill="#029b97"/>
    </g>
    <g id="Group_15765" data-name="Group 15765" transform="translate(-265)">
      <g id="Group_114213" data-name="Group 114213" transform="translate(346.838 66.41)">
        <path id="Path_31145" data-name="Path 31145" d="M117.821,1.444V25.763a15.983,15.983,0,0,1-15.709,16.213H39.274A15.983,15.983,0,0,1,23.564,25.763V1.444C10.572,1.444,0,12.356,0,25.763V123.04c0,13.407,10.572,24.318,23.564,24.318h94.257c12.992,0,23.565-10.911,23.565-24.318V25.763C141.385,12.356,130.813,1.444,117.821,1.444ZM21.752,63.8h97.882v5.612H21.752Zm97.882,33.672H21.752v5.612h97.882Z" transform="translate(0 9.736)" fill="#ddefe9" fill-rule="evenodd"/>
        <path id="Path_31146" data-name="Path 31146" d="M74.9,43.878H10.89c-4.417,0-8-3.269-8-7.313V7.313C2.889,3.269,6.473,0,10.89,0H74.9c4.417,0,8,3.269,8,7.313V36.565C82.9,40.609,79.316,43.878,74.9,43.878Z" transform="translate(28.073)" fill="#ddefe9" fill-rule="evenodd"/>
      </g>
      <g id="Group_114213-2" data-name="Group 114213" transform="translate(337.83 66.41)">
        <path id="Path_31145-2" data-name="Path 31145" d="M117.821,1.444V25.763a15.983,15.983,0,0,1-15.709,16.213H39.274A15.983,15.983,0,0,1,23.564,25.763V1.444C10.572,1.444,0,12.356,0,25.763V123.04c0,13.407,10.572,24.318,23.564,24.318h94.257c12.992,0,23.565-10.911,23.565-24.318V25.763C141.385,12.356,130.813,1.444,117.821,1.444ZM21.752,63.8h97.882v5.612H21.752Zm97.882,33.672H21.752v5.612h97.882Z" transform="translate(0 9.736)" fill="#fff" fill-rule="evenodd"/>
        <path id="Path_31146-2" data-name="Path 31146" d="M74.9,43.878H10.89c-4.417,0-8-3.269-8-7.313V7.313C2.889,3.269,6.473,0,10.89,0H74.9c4.417,0,8,3.269,8,7.313V36.565C82.9,40.609,79.316,43.878,74.9,43.878Z" transform="translate(28.073)" fill="#fff" fill-rule="evenodd"/>
      </g>
    </g>
    <g id="Group_15759" data-name="Group 15759" transform="translate(116.8 132.208)">
      <circle id="Ellipse_1346" data-name="Ellipse 1346" cx="27.938" cy="27.938" r="27.938" fill="#ddefe8"/>
      <path id="Path_32557" data-name="Path 32557" d="M273.275,271.752a27.954,27.954,0,0,1-33.417,27.4,27.944,27.944,0,0,0,0-54.8,27.954,27.954,0,0,1,33.417,27.4Z" transform="translate(-217.4 -243.815)" fill="#029b97" opacity="0.33"/>
      <g id="Group_15758" data-name="Group 15758" transform="translate(12.206 22.711)">
        <path id="Path_32558" data-name="Path 32558" d="M244.207,349.7a2.435,2.435,0,0,1-1.585-.585,6.7,6.7,0,0,0-4.29-1.48h-.022a6.7,6.7,0,0,0-4.276,1.454,2.442,2.442,0,0,1-3.149-3.734,11.486,11.486,0,0,1,7.424-2.6h.039a11.491,11.491,0,0,1,7.446,2.649,2.443,2.443,0,0,1-1.587,4.3Z" transform="translate(-222.923 -333.715)" fill="#94c9d3"/>
        <g id="Group_15757" data-name="Group 15757">
          <g id="Group_15755" data-name="Group 15755" transform="translate(26.58)">
            <path id="Path_32559" data-name="Path 32559" d="M293.2,319.473h-.014a2.443,2.443,0,0,1-.016-4.885h.043a2.443,2.443,0,0,1-.013,4.885Z" transform="translate(-290.74 -314.588)" fill="#94c9d3"/>
          </g>
          <g id="Group_15756" data-name="Group 15756" transform="translate(0 0)">
            <path id="Path_32560" data-name="Path 32560" d="M210.364,319.474a2.442,2.442,0,0,1-.029-4.885h.029a2.442,2.442,0,0,1,0,4.885Z" transform="translate(-207.907 -314.589)" fill="#94c9d3"/>
            <path id="Path_32561" data-name="Path 32561" d="M293.187,319.474a2.442,2.442,0,0,1-.029-4.885h.029a2.442,2.442,0,0,1,0,4.885Z" transform="translate(-264.153 -314.589)" fill="#94c9d3"/>
          </g>
        </g>
      </g>
    </g>
  </g>
</svg>
